<mxfile host="app.diagrams.net" modified="2024-05-15T07:25:17.159Z" agent="Mozilla/5.0 (Windows NT 10.0; Win64; x64) AppleWebKit/537.36 (KHTML, like Gecko) Chrome/124.0.0.0 Safari/537.36" etag="E4znzKhVfslELoisFD1I" version="24.4.0" type="device">
  <diagram name="Pagina-1" id="fxDCXCDSLe9XbUTeVFhx">
    <mxGraphModel dx="2245" dy="1149" grid="0" gridSize="10" guides="1" tooltips="1" connect="1" arrows="1" fold="1" page="1" pageScale="1" pageWidth="827" pageHeight="1169" math="0" shadow="0">
      <root>
        <mxCell id="0" />
        <mxCell id="1" parent="0" />
        <mxCell id="IIwTYYjMsivfenn-btKB-1" value="Quantum TLC Application" style="rounded=0;whiteSpace=wrap;html=1;" vertex="1" parent="1">
          <mxGeometry x="181" y="320" width="120" height="60" as="geometry" />
        </mxCell>
        <mxCell id="IIwTYYjMsivfenn-btKB-2" value="Key Vault REST API" style="rounded=0;whiteSpace=wrap;html=1;" vertex="1" parent="1">
          <mxGeometry x="411" y="320" width="120" height="60" as="geometry" />
        </mxCell>
        <mxCell id="IIwTYYjMsivfenn-btKB-3" value="" style="rounded=0;whiteSpace=wrap;html=1;fillColor=#dae8fc;strokeColor=#6c8ebf;" vertex="1" parent="1">
          <mxGeometry x="607" y="90" width="220" height="430" as="geometry" />
        </mxCell>
        <mxCell id="IIwTYYjMsivfenn-btKB-4" value="Azure Key Vault" style="text;html=1;align=center;verticalAlign=middle;whiteSpace=wrap;rounded=0;" vertex="1" parent="1">
          <mxGeometry x="657" y="100" width="120" height="30" as="geometry" />
        </mxCell>
        <mxCell id="IIwTYYjMsivfenn-btKB-5" value="" style="rounded=0;whiteSpace=wrap;html=1;fillColor=#d5e8d4;strokeColor=#82b366;" vertex="1" parent="1">
          <mxGeometry x="617" y="140" width="200" height="370" as="geometry" />
        </mxCell>
        <mxCell id="IIwTYYjMsivfenn-btKB-6" value="Quantum TLC Key Vault" style="text;html=1;align=center;verticalAlign=middle;whiteSpace=wrap;rounded=0;" vertex="1" parent="1">
          <mxGeometry x="617" y="150" width="200" height="30" as="geometry" />
        </mxCell>
        <mxCell id="IIwTYYjMsivfenn-btKB-7" value="" style="rounded=0;whiteSpace=wrap;html=1;fillColor=#fff2cc;strokeColor=#d6b656;" vertex="1" parent="1">
          <mxGeometry x="627" y="200" width="180" height="300" as="geometry" />
        </mxCell>
        <mxCell id="IIwTYYjMsivfenn-btKB-8" value="" style="endArrow=classic;html=1;rounded=0;exitX=1;exitY=0.75;exitDx=0;exitDy=0;entryX=0;entryY=0.75;entryDx=0;entryDy=0;" edge="1" parent="1" source="IIwTYYjMsivfenn-btKB-1" target="IIwTYYjMsivfenn-btKB-2">
          <mxGeometry width="50" height="50" relative="1" as="geometry">
            <mxPoint x="341" y="380" as="sourcePoint" />
            <mxPoint x="391" y="330" as="targetPoint" />
          </mxGeometry>
        </mxCell>
        <mxCell id="IIwTYYjMsivfenn-btKB-9" value="" style="endArrow=classic;html=1;rounded=0;exitX=0;exitY=0.25;exitDx=0;exitDy=0;entryX=1;entryY=0.25;entryDx=0;entryDy=0;" edge="1" parent="1" source="IIwTYYjMsivfenn-btKB-2" target="IIwTYYjMsivfenn-btKB-1">
          <mxGeometry width="50" height="50" relative="1" as="geometry">
            <mxPoint x="351" y="330" as="sourcePoint" />
            <mxPoint x="401" y="280" as="targetPoint" />
          </mxGeometry>
        </mxCell>
        <mxCell id="IIwTYYjMsivfenn-btKB-10" value="Certificate" style="text;html=1;align=center;verticalAlign=middle;whiteSpace=wrap;rounded=0;" vertex="1" parent="1">
          <mxGeometry x="687" y="200" width="60" height="30" as="geometry" />
        </mxCell>
        <mxCell id="IIwTYYjMsivfenn-btKB-11" value="Passwords" style="rounded=0;whiteSpace=wrap;html=1;" vertex="1" parent="1">
          <mxGeometry x="657" y="240" width="120" height="60" as="geometry" />
        </mxCell>
        <mxCell id="IIwTYYjMsivfenn-btKB-12" value="Keys" style="rounded=0;whiteSpace=wrap;html=1;" vertex="1" parent="1">
          <mxGeometry x="657" y="320" width="120" height="60" as="geometry" />
        </mxCell>
        <mxCell id="IIwTYYjMsivfenn-btKB-13" value="Secret" style="rounded=0;whiteSpace=wrap;html=1;" vertex="1" parent="1">
          <mxGeometry x="657" y="410" width="120" height="60" as="geometry" />
        </mxCell>
        <mxCell id="IIwTYYjMsivfenn-btKB-14" value="" style="endArrow=none;html=1;rounded=0;exitX=1;exitY=0.5;exitDx=0;exitDy=0;entryX=0;entryY=0.5;entryDx=0;entryDy=0;" edge="1" parent="1" source="IIwTYYjMsivfenn-btKB-2" target="IIwTYYjMsivfenn-btKB-11">
          <mxGeometry width="50" height="50" relative="1" as="geometry">
            <mxPoint x="567" y="260" as="sourcePoint" />
            <mxPoint x="617" y="210" as="targetPoint" />
          </mxGeometry>
        </mxCell>
        <mxCell id="IIwTYYjMsivfenn-btKB-15" value="" style="endArrow=none;html=1;rounded=0;exitX=1;exitY=0.5;exitDx=0;exitDy=0;entryX=0;entryY=0.5;entryDx=0;entryDy=0;" edge="1" parent="1" source="IIwTYYjMsivfenn-btKB-2" target="IIwTYYjMsivfenn-btKB-12">
          <mxGeometry width="50" height="50" relative="1" as="geometry">
            <mxPoint x="607" y="290" as="sourcePoint" />
            <mxPoint x="657" y="240" as="targetPoint" />
          </mxGeometry>
        </mxCell>
        <mxCell id="IIwTYYjMsivfenn-btKB-16" value="" style="endArrow=none;html=1;rounded=0;exitX=1;exitY=0.5;exitDx=0;exitDy=0;entryX=0;entryY=0.5;entryDx=0;entryDy=0;" edge="1" parent="1" source="IIwTYYjMsivfenn-btKB-2" target="IIwTYYjMsivfenn-btKB-13">
          <mxGeometry width="50" height="50" relative="1" as="geometry">
            <mxPoint x="547" y="380" as="sourcePoint" />
            <mxPoint x="597" y="330" as="targetPoint" />
          </mxGeometry>
        </mxCell>
      </root>
    </mxGraphModel>
  </diagram>
</mxfile>
